<?xml version="1.0" encoding="UTF-8"?>
<svg xmlns="http://www.w3.org/2000/svg" xmlns:xlink="http://www.w3.org/1999/xlink" width="375pt" height="374.999991pt" viewBox="0 0 375 374.999991" version="1.2">
<defs>
<clipPath id="clip1">
  <path d="M 35.300781 31.21875 L 337.289062 31.21875 L 337.289062 263 L 35.300781 263 Z M 35.300781 31.21875 "/>
</clipPath>
<clipPath id="clip2">
  <path d="M 145 299 L 184 299 L 184 337.21875 L 145 337.21875 Z M 145 299 "/>
</clipPath>
</defs>
<g id="surface1">
<g clip-path="url(#clip1)" clip-rule="nonzero">
<path style=" stroke:none;fill-rule:nonzero;fill:rgb(99.609375%,88.62915%,55.688477%);fill-opacity:1;" d="M 93.375 249.570312 C 84.457031 254.371094 75.519531 254.550781 67.296875 245.496094 C 51.847656 228.464844 73.042969 220.679688 87.46875 217.503906 C 99.425781 214.871094 112.78125 203.867188 115.65625 191.648438 C 118.308594 180.417969 114.171875 169.90625 102.730469 164.585938 C 98.734375 162.726562 94.671875 160.132812 90.277344 159.449219 C 85.917969 158.777344 81.496094 159.378906 77.109375 159.273438 C 69.65625 159.085938 63.859375 161.289062 56.683594 163.144531 C 49.320312 165.050781 39.570312 161.699219 35.871094 154.828125 C 32.726562 148.988281 34.625 141.5625 38.5 136.574219 C 43.253906 130.453125 48.84375 128.0625 56.40625 128.121094 C 72.039062 128.242188 101.648438 157.433594 114.042969 135.980469 C 123.683594 119.296875 82.035156 93.171875 76.5 78.773438 C 71.613281 66.070312 71.28125 43.839844 84.53125 35.683594 C 120.890625 13.320312 134.460938 82.902344 144.910156 102.347656 C 178.054688 164 183.21875 88.496094 206.453125 72.507812 C 220.253906 63.015625 237.839844 65.277344 241.554688 79.761719 C 247.066406 101.253906 212.804688 114.039062 215.320312 128.507812 C 221.570312 164.441406 304.34375 146.074219 327.082031 166.515625 C 337.222656 175.636719 339.800781 183.816406 334.851562 197.324219 C 325.125 223.875 305.214844 216.535156 283.621094 211.328125 C 273.007812 208.765625 262.636719 203.550781 251.460938 204.082031 C 246.542969 204.316406 240.738281 205.9375 238.265625 210.679688 C 234.933594 217.058594 240.953125 221.542969 244.691406 226.015625 C 249.40625 231.667969 250.789062 240.757812 246.207031 246.984375 C 239.613281 255.953125 228.347656 257.464844 219.945312 250.378906 C 209.4375 241.511719 210.273438 210.570312 190.574219 213.207031 C 175.175781 215.277344 180.953125 239.054688 176.484375 248.867188 C 169.894531 263.339844 145.644531 269.078125 138.542969 252.046875 C 134.976562 243.496094 137.988281 229.5625 127.515625 226.667969 C 115.902344 223.457031 107.871094 239.15625 100.105469 245.140625 C 97.875 246.867188 95.625 248.363281 93.375 249.570312 Z M 93.375 249.570312 "/>
</g>
<g clip-path="url(#clip2)" clip-rule="nonzero">
<path style=" stroke:none;fill-rule:nonzero;fill:rgb(99.609375%,88.62915%,55.688477%);fill-opacity:1;" d="M 172.855469 301.753906 C 182.054688 306.488281 185.671875 317.777344 180.929688 326.972656 C 176.191406 336.171875 164.898438 339.785156 155.703125 335.050781 C 146.503906 330.3125 142.886719 319.023438 147.625 309.824219 C 152.363281 300.632812 163.65625 297.015625 172.855469 301.753906 Z M 172.855469 301.753906 "/>
</g>
</g>
</svg>
