<?xml version="1.0" encoding="UTF-8"?>
<svg xmlns="http://www.w3.org/2000/svg" xmlns:xlink="http://www.w3.org/1999/xlink" width="1440pt" height="809.999993pt" viewBox="0 0 1440 809.999993" version="1.2">
<defs>
<clipPath id="clip1">
  <path d="M 546 243 L 895 243 L 895 459 L 546 459 Z M 546 243 "/>
</clipPath>
<clipPath id="clip2">
  <path d="M 498.460938 557 L 941.710938 557 L 941.710938 567 L 498.460938 567 Z M 498.460938 557 "/>
</clipPath>
<clipPath id="clip3">
  <path d="M 499 460 L 941.710938 460 L 941.710938 558 L 499 558 Z M 499 460 "/>
</clipPath>
</defs>
<g id="surface1">
<g clip-path="url(#clip1)" clip-rule="nonzero">
<path style=" stroke:none;fill-rule:nonzero;fill:rgb(13.729858%,12.159729%,12.548828%);fill-opacity:1;" d="M 555.5625 264.375 C 555.566406 258.804688 560.453125 254.269531 566.445312 254.269531 L 874.828125 254.675781 C 877.695312 254.683594 880.402344 255.710938 882.445312 257.585938 C 884.542969 259.503906 885.699219 262.070312 885.699219 264.808594 L 885.472656 435.910156 C 885.460938 441.488281 880.578125 446.019531 874.582031 446.019531 L 874.570312 446.019531 L 566.210938 445.609375 C 563.339844 445.605469 560.628906 444.574219 558.585938 442.703125 C 556.488281 440.785156 555.335938 438.210938 555.339844 435.476562 Z M 550.136719 458.15625 C 552.289062 456.621094 554.859375 456.257812 558.34375 456.257812 L 890.695312 456.695312 C 891.308594 456.695312 891.921875 456.707031 892.527344 456.738281 C 893.394531 455.523438 893.921875 454.050781 893.925781 452.453125 L 894.191406 250.800781 C 894.191406 248.824219 893.421875 246.964844 892.03125 245.5625 C 890.632812 244.164062 888.777344 243.394531 886.800781 243.390625 L 766.28125 243.234375 L 766.40625 243.25 L 766.546875 243.292969 C 766.695312 243.324219 766.835938 243.371094 766.972656 243.421875 L 767.167969 243.527344 L 767.480469 243.695312 L 767.742188 243.890625 L 767.929688 244.046875 L 768.078125 244.171875 L 768.167969 244.289062 C 768.34375 244.472656 768.503906 244.679688 768.644531 244.90625 L 768.820312 245.214844 C 768.910156 245.390625 768.992188 245.566406 769.070312 245.757812 L 769.203125 246.105469 L 769.214844 246.121094 C 769.328125 246.359375 769.386719 246.625 769.40625 246.898438 C 769.503906 247.382812 769.5625 247.878906 769.5625 248.40625 C 769.566406 250.140625 769.023438 251.683594 768.070312 252.636719 C 767.4375 253.269531 766.636719 253.617188 765.804688 253.617188 L 675.488281 253.496094 C 674.660156 253.492188 673.855469 253.144531 673.226562 252.511719 L 673.105469 252.355469 C 672.960938 252.195312 672.832031 252.027344 672.714844 251.84375 L 672.507812 251.507812 C 672.398438 251.308594 672.300781 251.097656 672.214844 250.875 C 672.167969 250.75 672.121094 250.632812 672.078125 250.5 C 672 250.246094 671.933594 249.980469 671.878906 249.707031 L 671.824219 249.371094 C 671.777344 249.019531 671.742188 248.65625 671.742188 248.277344 L 671.742188 248.269531 C 671.742188 247.050781 672.007812 245.96875 672.46875 245.113281 C 672.621094 244.832031 672.792969 244.570312 672.984375 244.339844 C 673.5625 243.640625 674.308594 243.207031 675.164062 243.113281 L 554.523438 242.953125 C 550.433594 242.953125 547.113281 246.265625 547.109375 250.339844 L 546.847656 451.996094 C 546.84375 453.976562 547.605469 455.828125 549.003906 457.230469 C 549.351562 457.578125 549.734375 457.890625 550.136719 458.15625 "/>
</g>
<path style=" stroke:none;fill-rule:nonzero;fill:rgb(13.729858%,12.159729%,12.548828%);fill-opacity:1;" d="M 765.351562 249.019531 L 677.179688 248.902344 C 677.136719 249.011719 677.097656 249.160156 677.066406 249.335938 L 765.238281 249.457031 C 765.28125 249.34375 765.324219 249.195312 765.351562 249.019531 "/>
<g clip-path="url(#clip2)" clip-rule="nonzero">
<path style=" stroke:none;fill-rule:nonzero;fill:rgb(13.729858%,12.159729%,12.548828%);fill-opacity:1;" d="M 941.839844 557.585938 C 939.691406 558.589844 936.878906 559.109375 934.082031 559.109375 L 934.042969 559.109375 L 506.429688 558.546875 C 503.644531 558.539062 500.847656 558.019531 498.703125 557.023438 C 498.550781 559.589844 498.675781 561.128906 498.863281 561.605469 C 498.984375 561.753906 499.085938 561.914062 499.164062 562.09375 C 499.511719 562.867188 502.273438 564.257812 506.566406 564.265625 L 934.183594 564.828125 L 934.207031 566.90625 L 934.207031 564.828125 C 938.867188 564.828125 941.398438 563.261719 941.574219 562.667969 L 941.609375 562.460938 C 941.84375 561.410156 941.882812 559.476562 941.839844 557.585938 "/>
</g>
<g clip-path="url(#clip3)" clip-rule="nonzero">
<path style=" stroke:none;fill-rule:nonzero;fill:rgb(13.729858%,12.159729%,12.548828%);fill-opacity:1;" d="M 542.179688 523.289062 L 548.320312 513.519531 L 548.414062 513.402344 C 548.425781 513.035156 548.53125 512.671875 548.734375 512.347656 L 554.878906 502.570312 C 555.074219 502.265625 555.339844 502.023438 555.648438 501.855469 C 555.671875 501.515625 555.769531 501.171875 555.957031 500.875 L 562.109375 491.105469 C 562.238281 490.898438 562.40625 490.730469 562.59375 490.589844 C 562.644531 490.359375 562.722656 490.136719 562.847656 489.929688 L 569.007812 480.15625 C 569.167969 479.902344 569.382812 479.699219 569.628906 479.542969 C 569.664062 479.257812 569.746094 478.976562 569.910156 478.71875 L 576.058594 468.949219 C 576.441406 468.34375 577.167969 467.980469 577.820312 467.976562 L 600.011719 468.007812 C 600.359375 468.007812 600.6875 468.101562 600.988281 468.257812 C 601.261719 468.128906 601.570312 468.035156 601.90625 468.015625 L 624.097656 468.039062 C 624.488281 468.039062 624.855469 468.160156 625.175781 468.359375 C 625.496094 468.160156 625.863281 468.039062 626.253906 468.039062 L 626.257812 468.039062 L 648.449219 468.074219 C 648.675781 468.074219 648.898438 468.121094 649.117188 468.199219 C 649.328125 468.121094 649.558594 468.074219 649.792969 468.074219 L 649.796875 468.074219 L 671.988281 468.101562 C 672.328125 468.101562 672.660156 468.191406 672.953125 468.347656 C 673.234375 468.207031 673.539062 468.105469 673.875 468.105469 L 696.074219 468.132812 C 696.46875 468.132812 696.84375 468.257812 697.171875 468.464844 C 697.488281 468.273438 697.839844 468.136719 698.230469 468.136719 L 720.425781 468.171875 C 720.710938 468.171875 720.984375 468.226562 721.238281 468.332031 C 721.480469 468.230469 721.757812 468.171875 722.039062 468.171875 L 722.046875 468.171875 L 744.234375 468.199219 C 744.574219 468.199219 744.894531 468.289062 745.183594 468.4375 C 745.46875 468.289062 745.796875 468.203125 746.132812 468.203125 L 768.316406 468.230469 C 768.710938 468.230469 769.070312 468.367188 769.382812 468.5625 C 769.714844 468.355469 770.085938 468.234375 770.484375 468.234375 L 770.488281 468.234375 L 792.675781 468.261719 C 793.007812 468.261719 793.316406 468.367188 793.597656 468.507812 C 793.890625 468.355469 794.214844 468.269531 794.558594 468.269531 L 794.5625 468.269531 L 816.753906 468.296875 C 817.078125 468.296875 817.375 468.386719 817.65625 468.527344 C 817.945312 468.371094 818.277344 468.285156 818.644531 468.296875 L 840.839844 468.328125 C 841.230469 468.328125 841.597656 468.441406 841.921875 468.636719 C 842.242188 468.441406 842.609375 468.328125 842.996094 468.328125 L 865.183594 468.359375 C 865.925781 468.359375 866.617188 468.753906 866.984375 469.398438 C 869.195312 473.230469 870.328125 475.183594 872.492188 478.921875 C 872.734375 479.222656 872.871094 479.609375 872.914062 480.015625 C 873.128906 480.183594 873.332031 480.378906 873.472656 480.621094 L 878.984375 490.148438 C 879.191406 490.414062 879.308594 490.738281 879.375 491.078125 C 879.535156 491.230469 879.6875 491.394531 879.800781 491.585938 L 885.308594 501.113281 C 885.585938 501.460938 885.746094 501.894531 885.757812 502.371094 C 886.035156 502.550781 886.273438 502.78125 886.441406 503.070312 L 891.953125 512.601562 C 892.164062 512.859375 892.285156 513.183594 892.347656 513.527344 C 892.511719 513.671875 892.664062 513.835938 892.777344 514.035156 L 898.285156 523.5625 C 898.570312 523.917969 898.738281 524.367188 898.738281 524.859375 C 898.738281 526.007812 897.8125 526.941406 896.65625 526.941406 L 896.632812 526.941406 L 868.527344 526.902344 C 868.019531 526.902344 867.554688 526.703125 867.183594 526.382812 C 866.816406 526.703125 866.34375 526.902344 865.820312 526.902344 L 865.792969 526.902344 L 837.683594 526.863281 C 837.25 526.863281 836.839844 526.722656 836.496094 526.484375 C 836.160156 526.71875 835.753906 526.859375 835.308594 526.859375 L 835.285156 526.859375 L 807.175781 526.820312 C 806.238281 526.820312 805.417969 526.195312 805.171875 525.289062 L 802.601562 515.867188 L 801.484375 515.867188 L 803.523438 523.902344 C 803.632812 524.164062 803.691406 524.4375 803.691406 524.738281 C 803.691406 525.886719 802.765625 526.816406 801.609375 526.816406 L 801.582031 526.816406 L 783.050781 526.789062 C 784.351562 533.976562 785.015625 537.625 786.296875 544.710938 C 786.378906 544.925781 786.421875 545.164062 786.421875 545.414062 C 786.421875 546.5625 785.492188 547.492188 784.339844 547.492188 L 784.308594 547.492188 L 654.132812 547.320312 C 653.5 547.320312 652.898438 547.027344 652.503906 546.527344 C 652.113281 546.03125 651.964844 545.382812 652.113281 544.761719 L 656.363281 526.625 L 637.964844 526.601562 C 637.304688 526.601562 636.683594 526.285156 636.292969 525.753906 C 635.902344 525.222656 635.78125 524.535156 635.976562 523.90625 L 638.515625 515.648438 L 638.445312 515.648438 L 635.382812 525.152344 C 635.097656 526.007812 634.300781 526.59375 633.398438 526.59375 L 605.285156 526.554688 C 604.765625 526.554688 604.277344 526.363281 603.902344 526.027344 C 603.527344 526.351562 603.0625 526.550781 602.546875 526.550781 L 574.445312 526.519531 C 574 526.519531 573.589844 526.363281 573.242188 526.113281 C 572.894531 526.363281 572.484375 526.511719 572.039062 526.511719 L 543.9375 526.476562 C 543.183594 526.476562 542.484375 526.0625 542.121094 525.402344 C 541.753906 524.742188 541.773438 523.933594 542.179688 523.289062 Z M 934.050781 554.949219 L 934.082031 557.03125 L 934.082031 554.949219 C 938.234375 554.949219 940.707031 553.703125 941.324219 553.011719 L 898.296875 463.910156 L 898.21875 463.734375 C 897.542969 461.914062 896.089844 460.859375 890.691406 460.855469 L 558.414062 460.414062 C 553.503906 460.414062 552.246094 461.183594 550.691406 463.648438 L 499.210938 552.492188 C 499.882812 553.167969 502.34375 554.375 506.4375 554.386719 L 934.050781 554.949219 "/>
</g>
<path style=" stroke:none;fill-rule:nonzero;fill:rgb(13.729858%,12.159729%,12.548828%);fill-opacity:1;" d="M 660.0625 529.070312 L 656.761719 543.164062 L 781.820312 543.328125 C 780.867188 538.085938 780.246094 534.636719 779.261719 529.226562 L 660.0625 529.070312 "/>
<path style=" stroke:none;fill-rule:nonzero;fill:rgb(13.729858%,12.159729%,12.548828%);fill-opacity:1;" d="M 640.78125 522.445312 L 798.910156 522.652344 L 797.585938 517.425781 L 642.382812 517.226562 L 640.78125 522.445312 "/>
<path style=" stroke:none;fill-rule:nonzero;fill:rgb(13.729858%,12.159729%,12.548828%);fill-opacity:1;" d="M 571.414062 521.183594 C 572.265625 519.585938 572.976562 518.257812 573.789062 516.738281 L 551.230469 516.707031 L 547.703125 522.320312 L 570.792969 522.355469 L 571.414062 521.183594 "/>
<path style=" stroke:none;fill-rule:nonzero;fill:rgb(13.729858%,12.159729%,12.548828%);fill-opacity:1;" d="M 577.882812 522.363281 L 601.175781 522.390625 L 603.582031 516.777344 L 580.824219 516.75 L 577.882812 522.363281 "/>
<path style=" stroke:none;fill-rule:nonzero;fill:rgb(13.729858%,12.159729%,12.548828%);fill-opacity:1;" d="M 608.410156 522.402344 L 631.878906 522.433594 L 633.691406 516.8125 L 610.765625 516.785156 L 608.410156 522.402344 "/>
<path style=" stroke:none;fill-rule:nonzero;fill:rgb(13.729858%,12.159729%,12.548828%);fill-opacity:1;" d="M 807.234375 517.046875 L 808.769531 522.664062 L 832.296875 522.699219 L 830.226562 517.074219 L 807.234375 517.046875 "/>
<path style=" stroke:none;fill-rule:nonzero;fill:rgb(13.729858%,12.159729%,12.548828%);fill-opacity:1;" d="M 837.011719 517.085938 L 839.125 522.707031 L 862.507812 522.738281 L 859.851562 517.117188 L 837.011719 517.085938 "/>
<path style=" stroke:none;fill-rule:nonzero;fill:rgb(13.729858%,12.159729%,12.548828%);fill-opacity:1;" d="M 869.835938 522.742188 L 893.027344 522.777344 L 889.773438 517.15625 L 867.128906 517.121094 L 869.835938 522.742188 "/>
<path style=" stroke:none;fill-rule:nonzero;fill:rgb(13.729858%,12.159729%,12.548828%);fill-opacity:1;" d="M 830.03125 511.746094 L 827.921875 506.117188 L 806.785156 506.085938 L 808.367188 511.710938 L 830.03125 511.746094 "/>
<path style=" stroke:none;fill-rule:nonzero;fill:rgb(13.729858%,12.159729%,12.548828%);fill-opacity:1;" d="M 855.53125 506.148438 L 834.550781 506.125 L 836.703125 511.75 L 858.210938 511.78125 L 855.53125 506.148438 "/>
<path style=" stroke:none;fill-rule:nonzero;fill:rgb(13.729858%,12.159729%,12.548828%);fill-opacity:1;" d="M 865.367188 511.789062 L 886.691406 511.816406 L 883.4375 506.1875 L 862.644531 506.160156 L 865.367188 511.789062 "/>
<path style=" stroke:none;fill-rule:nonzero;fill:rgb(13.729858%,12.159729%,12.548828%);fill-opacity:1;" d="M 744.65625 506.132812 L 744.644531 506.003906 L 723.296875 505.976562 L 723.292969 506.199219 C 723.25 508.121094 723.210938 509.660156 723.167969 511.605469 L 745.042969 511.632812 C 744.90625 509.671875 744.796875 508.117188 744.65625 506.132812 "/>
<path style=" stroke:none;fill-rule:nonzero;fill:rgb(13.729858%,12.159729%,12.548828%);fill-opacity:1;" d="M 751.441406 511.636719 L 773.285156 511.667969 L 772.320312 506.042969 L 751.003906 506.015625 L 751.441406 511.636719 "/>
<path style=" stroke:none;fill-rule:nonzero;fill:rgb(13.729858%,12.159729%,12.548828%);fill-opacity:1;" d="M 779.039062 506.046875 L 780.050781 511.675781 L 801.820312 511.707031 L 800.28125 506.078125 L 779.039062 506.046875 "/>
<path style=" stroke:none;fill-rule:nonzero;fill:rgb(13.729858%,12.159729%,12.548828%);fill-opacity:1;" d="M 661.503906 505.894531 L 640.300781 505.863281 L 638.464844 511.488281 L 660.1875 511.515625 L 661.503906 505.894531 "/>
<path style=" stroke:none;fill-rule:nonzero;fill:rgb(13.729858%,12.159729%,12.548828%);fill-opacity:1;" d="M 667.945312 505.90625 C 667.476562 507.992188 667.121094 509.574219 666.679688 511.527344 L 688.492188 511.554688 L 689.246094 505.933594 L 667.945312 505.90625 "/>
<path style=" stroke:none;fill-rule:nonzero;fill:rgb(13.729858%,12.159729%,12.548828%);fill-opacity:1;" d="M 717.265625 505.972656 L 695.921875 505.945312 L 695.234375 511.566406 L 717.097656 511.59375 L 717.265625 505.972656 "/>
<path style=" stroke:none;fill-rule:nonzero;fill:rgb(13.729858%,12.159729%,12.548828%);fill-opacity:1;" d="M 578.5 505.789062 L 557.796875 505.761719 L 554.257812 511.375 L 575.480469 511.402344 L 578.5 505.789062 "/>
<path style=" stroke:none;fill-rule:nonzero;fill:rgb(13.729858%,12.159729%,12.548828%);fill-opacity:1;" d="M 582.421875 511.414062 L 603.835938 511.441406 L 606.289062 505.820312 L 585.386719 505.796875 L 582.421875 511.414062 "/>
<path style=" stroke:none;fill-rule:nonzero;fill:rgb(13.729858%,12.159729%,12.548828%);fill-opacity:1;" d="M 610.910156 511.453125 L 632.503906 511.480469 L 632.859375 510.40625 C 633.398438 508.796875 633.84375 507.449219 634.375 505.859375 L 613.304688 505.832031 L 610.910156 511.453125 "/>
<path style=" stroke:none;fill-rule:nonzero;fill:rgb(13.729858%,12.159729%,12.548828%);fill-opacity:1;" d="M 823.621094 494.632812 L 803.554688 494.605469 C 804.101562 496.546875 804.546875 498.125 805.136719 500.230469 L 825.726562 500.257812 L 823.621094 494.632812 "/>
<path style=" stroke:none;fill-rule:nonzero;fill:rgb(13.729858%,12.159729%,12.548828%);fill-opacity:1;" d="M 850.074219 494.667969 L 830.15625 494.640625 L 832.308594 500.269531 L 852.746094 500.296875 L 850.074219 494.667969 "/>
<path style=" stroke:none;fill-rule:nonzero;fill:rgb(13.729858%,12.159729%,12.548828%);fill-opacity:1;" d="M 859.804688 500.308594 L 880.050781 500.335938 L 876.800781 494.707031 L 857.078125 494.679688 L 859.804688 500.308594 "/>
<path style=" stroke:none;fill-rule:nonzero;fill:rgb(13.729858%,12.159729%,12.548828%);fill-opacity:1;" d="M 743.84375 494.527344 L 723.5625 494.5 L 723.433594 500.121094 L 744.238281 500.148438 L 743.84375 494.527344 "/>
<path style=" stroke:none;fill-rule:nonzero;fill:rgb(13.729858%,12.159729%,12.548828%);fill-opacity:1;" d="M 750.546875 500.160156 L 771.324219 500.1875 C 770.988281 498.214844 770.714844 496.640625 770.359375 494.566406 L 750.109375 494.535156 L 750.546875 500.160156 "/>
<path style=" stroke:none;fill-rule:nonzero;fill:rgb(13.729858%,12.159729%,12.548828%);fill-opacity:1;" d="M 777.984375 500.191406 L 798.683594 500.226562 C 798.152344 498.28125 797.71875 496.707031 797.144531 494.597656 L 776.964844 494.570312 L 777.984375 500.191406 "/>
<path style=" stroke:none;fill-rule:nonzero;fill:rgb(13.729858%,12.159729%,12.548828%);fill-opacity:1;" d="M 664.183594 494.425781 L 644.058594 494.398438 L 642.222656 500.015625 L 662.871094 500.042969 C 663.363281 497.949219 663.726562 496.375 664.183594 494.425781 "/>
<path style=" stroke:none;fill-rule:nonzero;fill:rgb(13.729858%,12.159729%,12.548828%);fill-opacity:1;" d="M 690.015625 500.078125 L 690.761719 494.457031 L 670.539062 494.429688 L 669.273438 500.050781 L 690.015625 500.078125 "/>
<path style=" stroke:none;fill-rule:nonzero;fill:rgb(13.729858%,12.159729%,12.548828%);fill-opacity:1;" d="M 717.605469 494.496094 L 697.339844 494.46875 L 696.648438 500.089844 L 717.445312 500.117188 L 717.605469 494.496094 "/>
<path style=" stroke:none;fill-rule:nonzero;fill:rgb(13.729858%,12.159729%,12.548828%);fill-opacity:1;" d="M 584.644531 494.316406 L 565.019531 494.296875 L 561.480469 499.910156 L 581.636719 499.9375 L 584.644531 494.316406 "/>
<path style=" stroke:none;fill-rule:nonzero;fill:rgb(13.729858%,12.159729%,12.548828%);fill-opacity:1;" d="M 611.273438 494.355469 L 591.449219 494.328125 L 588.484375 499.949219 L 608.835938 499.972656 L 611.273438 494.355469 "/>
<path style=" stroke:none;fill-rule:nonzero;fill:rgb(13.729858%,12.159729%,12.548828%);fill-opacity:1;" d="M 615.800781 499.980469 L 636.320312 500.007812 L 638.1875 494.386719 L 618.1875 494.367188 L 615.800781 499.980469 "/>
<path style=" stroke:none;fill-rule:nonzero;fill:rgb(13.729858%,12.159729%,12.548828%);fill-opacity:1;" d="M 802.046875 489.273438 L 821.621094 489.296875 C 820.902344 487.378906 820.3125 485.804688 819.511719 483.671875 L 800.464844 483.648438 L 802.046875 489.273438 "/>
<path style=" stroke:none;fill-rule:nonzero;fill:rgb(13.729858%,12.159729%,12.548828%);fill-opacity:1;" d="M 828.117188 489.308594 L 847.53125 489.335938 L 844.855469 483.707031 L 825.960938 483.679688 L 828.117188 489.308594 "/>
<path style=" stroke:none;fill-rule:nonzero;fill:rgb(13.729858%,12.159729%,12.548828%);fill-opacity:1;" d="M 854.484375 489.339844 L 873.722656 489.367188 L 870.46875 483.742188 L 851.757812 483.714844 C 852.675781 485.605469 853.445312 487.191406 854.484375 489.339844 "/>
<path style=" stroke:none;fill-rule:nonzero;fill:rgb(13.729858%,12.159729%,12.548828%);fill-opacity:1;" d="M 743.074219 483.566406 L 723.816406 483.546875 L 723.691406 489.167969 L 743.46875 489.195312 L 743.074219 483.566406 "/>
<path style=" stroke:none;fill-rule:nonzero;fill:rgb(13.729858%,12.159729%,12.548828%);fill-opacity:1;" d="M 749.691406 489.203125 L 769.441406 489.230469 C 769.105469 487.253906 768.835938 485.679688 768.476562 483.605469 L 749.253906 483.578125 L 749.691406 489.203125 "/>
<path style=" stroke:none;fill-rule:nonzero;fill:rgb(13.729858%,12.159729%,12.548828%);fill-opacity:1;" d="M 776.007812 489.238281 L 795.683594 489.265625 C 795.230469 487.589844 794.84375 486.1875 794.378906 484.484375 L 794.144531 483.636719 L 774.992188 483.609375 L 776.007812 489.238281 "/>
<path style=" stroke:none;fill-rule:nonzero;fill:rgb(13.729858%,12.159729%,12.548828%);fill-opacity:1;" d="M 666.742188 483.46875 L 647.640625 483.441406 L 645.804688 489.070312 L 665.429688 489.097656 L 666.742188 483.46875 "/>
<path style=" stroke:none;fill-rule:nonzero;fill:rgb(13.729858%,12.159729%,12.548828%);fill-opacity:1;" d="M 692.207031 483.503906 L 673.011719 483.480469 L 671.738281 489.101562 L 691.460938 489.128906 L 692.207031 483.503906 "/>
<path style=" stroke:none;fill-rule:nonzero;fill:rgb(13.729858%,12.159729%,12.548828%);fill-opacity:1;" d="M 717.9375 483.539062 L 698.691406 483.511719 L 697.996094 489.132812 L 717.769531 489.160156 L 717.9375 483.539062 "/>
<path style=" stroke:none;fill-rule:nonzero;fill:rgb(13.729858%,12.159729%,12.548828%);fill-opacity:1;" d="M 590.519531 483.371094 L 571.914062 483.34375 L 568.375 488.964844 L 587.507812 488.988281 L 590.519531 483.371094 "/>
<path style=" stroke:none;fill-rule:nonzero;fill:rgb(13.729858%,12.159729%,12.548828%);fill-opacity:1;" d="M 613.597656 489.027344 L 614.039062 488.011719 C 614.757812 486.355469 615.347656 484.992188 616.042969 483.40625 L 597.234375 483.378906 L 594.265625 489 L 613.597656 489.027344 "/>
<path style=" stroke:none;fill-rule:nonzero;fill:rgb(13.729858%,12.159729%,12.548828%);fill-opacity:1;" d="M 639.960938 489.058594 L 641.835938 483.4375 L 622.855469 483.410156 C 621.945312 485.550781 621.273438 487.128906 620.460938 489.035156 L 639.960938 489.058594 "/>
<path style=" stroke:none;fill-rule:nonzero;fill:rgb(13.729858%,12.159729%,12.548828%);fill-opacity:1;" d="M 817.417969 478.074219 L 815.304688 472.453125 L 797.3125 472.425781 L 798.894531 478.046875 L 817.417969 478.074219 "/>
<path style=" stroke:none;fill-rule:nonzero;fill:rgb(13.729858%,12.159729%,12.548828%);fill-opacity:1;" d="M 842.195312 478.109375 L 839.515625 472.480469 L 821.667969 472.460938 L 823.820312 478.082031 L 842.195312 478.109375 "/>
<path style=" stroke:none;fill-rule:nonzero;fill:rgb(13.729858%,12.159729%,12.548828%);fill-opacity:1;" d="M 867.226562 478.140625 C 866.148438 476.273438 865.234375 474.6875 863.976562 472.515625 L 846.316406 472.492188 C 847.230469 474.382812 848 475.964844 849.042969 478.121094 L 867.226562 478.140625 "/>
<path style=" stroke:none;fill-rule:nonzero;fill:rgb(13.729858%,12.159729%,12.548828%);fill-opacity:1;" d="M 742.289062 472.355469 L 724.078125 472.335938 L 723.949219 477.953125 L 742.679688 477.972656 L 742.289062 472.355469 "/>
<path style=" stroke:none;fill-rule:nonzero;fill:rgb(13.729858%,12.159729%,12.548828%);fill-opacity:1;" d="M 767.523438 478.011719 L 766.558594 472.390625 L 748.378906 472.363281 C 748.539062 474.367188 748.65625 475.9375 748.8125 477.984375 L 767.523438 478.011719 "/>
<path style=" stroke:none;fill-rule:nonzero;fill:rgb(13.729858%,12.159729%,12.548828%);fill-opacity:1;" d="M 792.617188 478.042969 C 792.082031 476.105469 791.652344 474.523438 791.078125 472.421875 L 772.972656 472.394531 L 773.980469 478.015625 L 792.617188 478.042969 "/>
<path style=" stroke:none;fill-rule:nonzero;fill:rgb(13.729858%,12.159729%,12.548828%);fill-opacity:1;" d="M 669.363281 472.257812 L 651.304688 472.238281 L 649.46875 477.855469 L 668.046875 477.882812 L 669.363281 472.257812 "/>
<path style=" stroke:none;fill-rule:nonzero;fill:rgb(13.729858%,12.159729%,12.548828%);fill-opacity:1;" d="M 693.695312 472.292969 L 675.539062 472.265625 C 675.070312 474.355469 674.714844 475.929688 674.273438 477.886719 L 692.953125 477.90625 L 693.695312 472.292969 "/>
<path style=" stroke:none;fill-rule:nonzero;fill:rgb(13.729858%,12.159729%,12.548828%);fill-opacity:1;" d="M 718.277344 472.324219 L 700.074219 472.296875 L 699.378906 477.917969 L 718.105469 477.941406 L 718.277344 472.324219 "/>
<path style=" stroke:none;fill-rule:nonzero;fill:rgb(13.729858%,12.159729%,12.548828%);fill-opacity:1;" d="M 596.53125 472.160156 L 578.964844 472.140625 L 575.433594 477.757812 L 593.523438 477.777344 L 596.53125 472.160156 "/>
<path style=" stroke:none;fill-rule:nonzero;fill:rgb(13.729858%,12.159729%,12.548828%);fill-opacity:1;" d="M 620.921875 472.195312 L 603.160156 472.171875 L 600.191406 477.789062 L 618.476562 477.808594 L 620.921875 472.195312 "/>
<path style=" stroke:none;fill-rule:nonzero;fill:rgb(13.729858%,12.159729%,12.548828%);fill-opacity:1;" d="M 645.558594 472.226562 L 627.628906 472.207031 L 625.242188 477.820312 L 643.691406 477.84375 C 644.398438 475.730469 644.921875 474.15625 645.558594 472.226562 "/>
</g>
</svg>
